<svg width="229" height="55" viewBox="0 0 229 55" fill="none" xmlns="http://www.w3.org/2000/svg">
<rect x="3" y="33" width="90" height="2" rx="1" fill="#FEA97A"/>
<path d="M18.7207 26.8467C17.7441 27.6865 16.6504 28.3311 15.4395 28.7803C14.2285 29.2295 12.9736 29.4541 11.6748 29.4541C10.6787 29.4541 9.7168 29.3223 8.78906 29.0586C7.87109 28.8047 7.00684 28.4434 6.19629 27.9746C5.39551 27.4961 4.66309 26.9248 3.99902 26.2607C3.33496 25.5967 2.76367 24.8643 2.28516 24.0635C1.81641 23.2529 1.4502 22.3887 1.18652 21.4707C0.932617 20.543 0.805664 19.5811 0.805664 18.585C0.805664 17.5889 0.932617 16.627 1.18652 15.6992C1.4502 14.7715 1.81641 13.9072 2.28516 13.1064C2.76367 12.2959 3.33496 11.5586 3.99902 10.8945C4.66309 10.2305 5.39551 9.66406 6.19629 9.19531C7.00684 8.7168 7.87109 8.35059 8.78906 8.09668C9.7168 7.83301 10.6787 7.70117 11.6748 7.70117C12.9736 7.70117 14.2285 7.92578 15.4395 8.375C16.6504 8.81445 17.7441 9.45898 18.7207 10.3086L16.4941 13.9707C15.8789 13.3066 15.1514 12.7988 14.3115 12.4473C13.4717 12.0859 12.5928 11.9053 11.6748 11.9053C10.7471 11.9053 9.87793 12.0811 9.06738 12.4326C8.25684 12.7842 7.54883 13.2627 6.94336 13.8682C6.33789 14.4639 5.85938 15.1719 5.50781 15.9922C5.15625 16.8027 4.98047 17.667 4.98047 18.585C4.98047 19.5029 5.15625 20.3672 5.50781 21.1777C5.85938 21.9785 6.33789 22.6816 6.94336 23.2871C7.54883 23.8926 8.25684 24.3711 9.06738 24.7227C9.87793 25.0742 10.7471 25.25 11.6748 25.25C12.5928 25.25 13.4717 25.0742 14.3115 24.7227C15.1514 24.3613 15.8789 23.8486 16.4941 23.1846L18.7207 26.8467ZM24.7412 29H20.7422V7.07129H24.7412V14C25.2197 13.6387 25.7129 13.3848 26.2207 13.2383C26.7285 13.082 27.2461 13.0039 27.7734 13.0039C28.7402 13.0039 29.6484 13.1895 30.498 13.5605C31.3477 13.9219 32.085 14.4248 32.71 15.0693C33.3447 15.7041 33.8428 16.4512 34.2041 17.3105C34.5752 18.1602 34.7607 19.0684 34.7607 20.0352V29H30.7324V20.0352H30.7617C30.7617 19.625 30.6836 19.2393 30.5273 18.8779C30.3711 18.5068 30.1562 18.1846 29.8828 17.9111C29.6094 17.6377 29.292 17.4229 28.9307 17.2666C28.5693 17.1104 28.1836 17.0322 27.7734 17.0322C27.3535 17.0322 26.958 17.1104 26.5869 17.2666C26.2158 17.4229 25.8936 17.6377 25.6201 17.9111C25.3467 18.1846 25.1318 18.5068 24.9756 18.8779C24.8193 19.2393 24.7412 19.625 24.7412 20.0352V29ZM43.8574 25.1621C44.0137 25.2109 44.1699 25.2451 44.3262 25.2646C44.4824 25.2744 44.6387 25.2793 44.7949 25.2793C45.1855 25.2793 45.5615 25.2256 45.9229 25.1182C46.2842 25.0107 46.6211 24.8594 46.9336 24.6641C47.2559 24.459 47.5391 24.2148 47.7832 23.9316C48.0371 23.6387 48.2422 23.3164 48.3984 22.9648L51.3281 25.9092C50.957 26.4365 50.5273 26.9102 50.0391 27.3301C49.5605 27.75 49.0381 28.1064 48.4717 28.3994C47.915 28.6924 47.3242 28.9121 46.6992 29.0586C46.084 29.2148 45.4492 29.293 44.7949 29.293C43.6914 29.293 42.6514 29.0879 41.6748 28.6777C40.708 28.2676 39.8584 27.6963 39.126 26.9639C38.4033 26.2314 37.832 25.3623 37.4121 24.3564C36.9922 23.3408 36.7822 22.2275 36.7822 21.0166C36.7822 19.7764 36.9922 18.6436 37.4121 17.6182C37.832 16.5928 38.4033 15.7188 39.126 14.9961C39.8584 14.2734 40.708 13.7119 41.6748 13.3115C42.6514 12.9111 43.6914 12.7109 44.7949 12.7109C45.4492 12.7109 46.0889 12.7891 46.7139 12.9453C47.3389 13.1016 47.9297 13.3262 48.4863 13.6191C49.0527 13.9121 49.5801 14.2734 50.0684 14.7031C50.5566 15.123 50.9863 15.5967 51.3574 16.124L43.8574 25.1621ZM45.9082 16.915C45.7227 16.8467 45.5371 16.8027 45.3516 16.7832C45.1758 16.7637 44.9902 16.7539 44.7949 16.7539C44.248 16.7539 43.7305 16.8564 43.2422 17.0615C42.7637 17.2568 42.3438 17.54 41.9824 17.9111C41.6309 18.2822 41.3525 18.7314 41.1475 19.2588C40.9424 19.7764 40.8398 20.3623 40.8398 21.0166C40.8398 21.1631 40.8447 21.3291 40.8545 21.5146C40.874 21.7002 40.8984 21.8906 40.9277 22.0859C40.9668 22.2715 41.0107 22.4521 41.0596 22.6279C41.1084 22.8037 41.1719 22.96 41.25 23.0967L45.9082 16.915ZM57.3779 29H53.3789V13.3115H54.3457L55.6641 15.1719C56.3086 14.5859 57.041 14.1367 57.8613 13.8242C58.6816 13.502 59.5312 13.3408 60.4102 13.3408H63.9404V17.3252H60.4102C59.9902 17.3252 59.5947 17.4033 59.2236 17.5596C58.8525 17.7158 58.5303 17.9307 58.2568 18.2041C57.9834 18.4775 57.7686 18.7998 57.6123 19.1709C57.4561 19.542 57.3779 19.9375 57.3779 20.3574V29ZM69.7998 29H65.8008V13.3115H66.7676L68.0859 14.835C68.7305 14.249 69.458 13.7998 70.2686 13.4873C71.0889 13.165 71.9434 13.0039 72.832 13.0039C73.7891 13.0039 74.6924 13.1895 75.542 13.5605C76.3916 13.9219 77.1338 14.4248 77.7686 15.0693C78.4033 15.7041 78.9014 16.4512 79.2627 17.3105C79.6338 18.1602 79.8193 19.0684 79.8193 20.0352V29H75.8203V20.0352C75.8203 19.625 75.7422 19.2393 75.5859 18.8779C75.4297 18.5068 75.2148 18.1846 74.9414 17.9111C74.668 17.6377 74.3506 17.4229 73.9893 17.2666C73.6279 17.1104 73.2422 17.0322 72.832 17.0322C72.4121 17.0322 72.0166 17.1104 71.6455 17.2666C71.2744 17.4229 70.9521 17.6377 70.6787 17.9111C70.4053 18.1846 70.1904 18.5068 70.0342 18.8779C69.8779 19.2393 69.7998 19.625 69.7998 20.0352V29ZM87.3926 9.04883C87.3926 9.41992 87.3193 9.7666 87.1729 10.0889C87.0361 10.4111 86.8457 10.6943 86.6016 10.9385C86.3574 11.1729 86.0693 11.3633 85.7373 11.5098C85.415 11.6465 85.0684 11.7148 84.6973 11.7148C84.3262 11.7148 83.9746 11.6465 83.6426 11.5098C83.3203 11.3633 83.0371 11.1729 82.793 10.9385C82.5586 10.6943 82.3682 10.4111 82.2217 10.0889C82.085 9.7666 82.0166 9.41992 82.0166 9.04883C82.0166 8.6875 82.085 8.3457 82.2217 8.02344C82.3682 7.69141 82.5586 7.4082 82.793 7.17383C83.0371 6.92969 83.3203 6.73926 83.6426 6.60254C83.9746 6.45605 84.3262 6.38281 84.6973 6.38281C85.0684 6.38281 85.415 6.45605 85.7373 6.60254C86.0693 6.73926 86.3574 6.92969 86.6016 7.17383C86.8457 7.4082 87.0361 7.69141 87.1729 8.02344C87.3193 8.3457 87.3926 8.6875 87.3926 9.04883ZM86.7041 29H82.6758V13.3115H86.7041V29ZM100.928 21.0166C100.928 20.4697 100.82 19.9424 100.605 19.4346C100.4 18.917 100.117 18.4629 99.7559 18.0723C99.3945 17.6719 98.9697 17.3545 98.4814 17.1201C98.0029 16.876 97.4902 16.7539 96.9434 16.7539C96.3965 16.7539 95.8789 16.8467 95.3906 17.0322C94.9121 17.2178 94.4922 17.4912 94.1309 17.8525C93.7793 18.2139 93.501 18.6631 93.2959 19.2002C93.0908 19.7275 92.9883 20.333 92.9883 21.0166C92.9883 21.6709 93.0908 22.2617 93.2959 22.7891C93.501 23.3066 93.7793 23.751 94.1309 24.1221C94.4922 24.4932 94.9121 24.7812 95.3906 24.9863C95.8789 25.1816 96.3965 25.2793 96.9434 25.2793C97.4902 25.2793 98.0029 25.1621 98.4814 24.9277C98.9697 24.6836 99.3945 24.3662 99.7559 23.9756C100.117 23.5752 100.4 23.1211 100.605 22.6133C100.82 22.0957 100.928 21.5635 100.928 21.0166ZM104.956 27.0225C104.956 28.126 104.746 29.1611 104.326 30.1279C103.906 31.0947 103.33 31.9395 102.598 32.6621C101.875 33.3848 101.025 33.9561 100.049 34.376C99.082 34.7959 98.0469 35.0059 96.9434 35.0059L94.9365 34.9766V30.9775L96.9141 31.0068C97.5391 31.0068 98.0713 30.9238 98.5107 30.7578C98.9502 30.6016 99.3213 30.3818 99.624 30.0986C99.9268 29.8252 100.166 29.5078 100.342 29.1465C100.527 28.7852 100.674 28.4043 100.781 28.0039C100.625 28.2578 100.4 28.4678 100.107 28.6338C99.8145 28.79 99.4873 28.917 99.126 29.0146C98.7744 29.1221 98.4033 29.1953 98.0127 29.2344C97.6318 29.2734 97.2754 29.293 96.9434 29.293C95.8398 29.293 94.7998 29.1025 93.8232 28.7217C92.8564 28.3408 92.0068 27.7988 91.2744 27.0957C90.5518 26.3828 89.9805 25.5137 89.5605 24.4883C89.1406 23.4629 88.9307 22.3057 88.9307 21.0166C88.9307 19.835 89.1406 18.7363 89.5605 17.7207C89.9805 16.7051 90.5518 15.8262 91.2744 15.084C92.0068 14.3418 92.8564 13.7607 93.8232 13.3408C94.7998 12.9209 95.8398 12.7109 96.9434 12.7109C97.4512 12.7109 97.9541 12.7744 98.4521 12.9014C98.9502 13.0283 99.4336 13.2041 99.9023 13.4287C100.371 13.6533 100.815 13.917 101.235 14.2197C101.665 14.5225 102.065 14.8496 102.437 15.2012L103.989 13.3408H104.956V27.0225ZM112.734 9.04883C112.734 9.41992 112.661 9.7666 112.515 10.0889C112.378 10.4111 112.188 10.6943 111.943 10.9385C111.699 11.1729 111.411 11.3633 111.079 11.5098C110.757 11.6465 110.41 11.7148 110.039 11.7148C109.668 11.7148 109.316 11.6465 108.984 11.5098C108.662 11.3633 108.379 11.1729 108.135 10.9385C107.9 10.6943 107.71 10.4111 107.563 10.0889C107.427 9.7666 107.358 9.41992 107.358 9.04883C107.358 8.6875 107.427 8.3457 107.563 8.02344C107.71 7.69141 107.9 7.4082 108.135 7.17383C108.379 6.92969 108.662 6.73926 108.984 6.60254C109.316 6.45605 109.668 6.38281 110.039 6.38281C110.41 6.38281 110.757 6.45605 111.079 6.60254C111.411 6.73926 111.699 6.92969 111.943 7.17383C112.188 7.4082 112.378 7.69141 112.515 8.02344C112.661 8.3457 112.734 8.6875 112.734 9.04883ZM112.046 29H108.018V13.3115H112.046V29ZM119.106 29H115.107V13.3115H116.074L117.393 14.835C118.037 14.249 118.765 13.7998 119.575 13.4873C120.396 13.165 121.25 13.0039 122.139 13.0039C123.096 13.0039 123.999 13.1895 124.849 13.5605C125.698 13.9219 126.44 14.4248 127.075 15.0693C127.71 15.7041 128.208 16.4512 128.569 17.3105C128.94 18.1602 129.126 19.0684 129.126 20.0352V29H125.127V20.0352C125.127 19.625 125.049 19.2393 124.893 18.8779C124.736 18.5068 124.521 18.1846 124.248 17.9111C123.975 17.6377 123.657 17.4229 123.296 17.2666C122.935 17.1104 122.549 17.0322 122.139 17.0322C121.719 17.0322 121.323 17.1104 120.952 17.2666C120.581 17.4229 120.259 17.6377 119.985 17.9111C119.712 18.1846 119.497 18.5068 119.341 18.8779C119.185 19.2393 119.106 19.625 119.106 20.0352V29Z" fill="#FEA97A"/>
<path d="M147.152 29H142.948V7.99414H147.152V16.4023H155.546V7.99414H159.75V29H155.546V20.6064H147.152V29ZM178.163 21.0166C178.163 22.1885 177.953 23.2822 177.533 24.2979C177.113 25.3037 176.542 26.1777 175.819 26.9199C175.097 27.6523 174.247 28.2334 173.271 28.6631C172.304 29.083 171.264 29.293 170.15 29.293C169.047 29.293 168.007 29.083 167.03 28.6631C166.063 28.2334 165.214 27.6523 164.481 26.9199C163.759 26.1777 163.188 25.3037 162.768 24.2979C162.348 23.2822 162.138 22.1885 162.138 21.0166C162.138 19.8252 162.348 18.7217 162.768 17.7061C163.188 16.6904 163.759 15.8164 164.481 15.084C165.214 14.3418 166.063 13.7607 167.03 13.3408C168.007 12.9209 169.047 12.7109 170.15 12.7109C171.264 12.7109 172.304 12.9111 173.271 13.3115C174.247 13.7021 175.097 14.2637 175.819 14.9961C176.542 15.7188 177.113 16.5928 177.533 17.6182C177.953 18.6338 178.163 19.7666 178.163 21.0166ZM174.135 21.0166C174.135 20.3721 174.027 19.791 173.812 19.2734C173.607 18.7461 173.324 18.2969 172.963 17.9258C172.602 17.5449 172.177 17.2568 171.688 17.0615C171.21 16.8564 170.697 16.7539 170.15 16.7539C169.604 16.7539 169.086 16.8564 168.598 17.0615C168.119 17.2568 167.699 17.5449 167.338 17.9258C166.986 18.2969 166.708 18.7461 166.503 19.2734C166.298 19.791 166.195 20.3721 166.195 21.0166C166.195 21.6221 166.298 22.1836 166.503 22.7012C166.708 23.2188 166.986 23.668 167.338 24.0488C167.699 24.4297 168.119 24.7324 168.598 24.957C169.086 25.1719 169.604 25.2793 170.15 25.2793C170.697 25.2793 171.21 25.1768 171.688 24.9717C172.177 24.7666 172.602 24.4785 172.963 24.1074C173.324 23.7363 173.607 23.2871 173.812 22.7598C174.027 22.2324 174.135 21.6514 174.135 21.0166ZM191.903 27.1689C191.581 27.4619 191.234 27.7402 190.863 28.0039C190.502 28.2578 190.121 28.4824 189.721 28.6777C189.32 28.8633 188.905 29.0098 188.476 29.1172C188.056 29.2344 187.626 29.293 187.187 29.293C186.22 29.293 185.312 29.1221 184.462 28.7803C183.612 28.4385 182.865 27.9551 182.221 27.3301C181.586 26.6953 181.083 25.9287 180.712 25.0303C180.351 24.1221 180.17 23.1064 180.17 21.9834V13.3115H184.154V21.9834C184.154 22.5107 184.232 22.9844 184.389 23.4043C184.555 23.8145 184.774 24.1611 185.048 24.4443C185.321 24.7275 185.639 24.9424 186 25.0889C186.371 25.2354 186.767 25.3086 187.187 25.3086C187.597 25.3086 187.982 25.2158 188.344 25.0303C188.715 24.835 189.037 24.5811 189.311 24.2686C189.584 23.9561 189.799 23.6045 189.955 23.2139C190.111 22.8135 190.189 22.4033 190.189 21.9834V13.3115H194.188V29H193.222L191.903 27.1689ZM205.863 29H196.723V25.0156H205.863C206.137 25.0156 206.371 24.918 206.566 24.7227C206.762 24.5273 206.859 24.293 206.859 24.0195C206.859 23.7363 206.762 23.5508 206.566 23.4629C206.371 23.375 206.137 23.3311 205.863 23.3311H201.703C201.01 23.3311 200.36 23.1992 199.755 22.9355C199.149 22.6719 198.622 22.3154 198.173 21.8662C197.724 21.4072 197.367 20.875 197.104 20.2695C196.85 19.6641 196.723 19.0146 196.723 18.3213C196.723 17.6279 196.85 16.9785 197.104 16.373C197.367 15.7676 197.724 15.2402 198.173 14.791C198.622 14.3418 199.149 13.9902 199.755 13.7363C200.36 13.4727 201.01 13.3408 201.703 13.3408H209.804V17.3252H201.703C201.43 17.3252 201.195 17.4229 201 17.6182C200.805 17.8135 200.707 18.0479 200.707 18.3213C200.707 18.6045 200.805 18.8486 201 19.0537C201.195 19.249 201.43 19.3467 201.703 19.3467H205.863C206.547 19.3467 207.191 19.4639 207.797 19.6982C208.402 19.9229 208.93 20.2402 209.379 20.6504C209.828 21.0605 210.185 21.5537 210.448 22.1299C210.712 22.7061 210.844 23.3359 210.844 24.0195C210.844 24.7129 210.712 25.3623 210.448 25.9678C210.185 26.5635 209.828 27.0908 209.379 27.5498C208.93 27.999 208.402 28.3555 207.797 28.6191C207.191 28.873 206.547 29 205.863 29ZM219.223 25.1621C219.379 25.2109 219.535 25.2451 219.691 25.2646C219.848 25.2744 220.004 25.2793 220.16 25.2793C220.551 25.2793 220.927 25.2256 221.288 25.1182C221.649 25.0107 221.986 24.8594 222.299 24.6641C222.621 24.459 222.904 24.2148 223.148 23.9316C223.402 23.6387 223.607 23.3164 223.764 22.9648L226.693 25.9092C226.322 26.4365 225.893 26.9102 225.404 27.3301C224.926 27.75 224.403 28.1064 223.837 28.3994C223.28 28.6924 222.689 28.9121 222.064 29.0586C221.449 29.2148 220.814 29.293 220.16 29.293C219.057 29.293 218.017 29.0879 217.04 28.6777C216.073 28.2676 215.224 27.6963 214.491 26.9639C213.769 26.2314 213.197 25.3623 212.777 24.3564C212.357 23.3408 212.147 22.2275 212.147 21.0166C212.147 19.7764 212.357 18.6436 212.777 17.6182C213.197 16.5928 213.769 15.7188 214.491 14.9961C215.224 14.2734 216.073 13.7119 217.04 13.3115C218.017 12.9111 219.057 12.7109 220.16 12.7109C220.814 12.7109 221.454 12.7891 222.079 12.9453C222.704 13.1016 223.295 13.3262 223.852 13.6191C224.418 13.9121 224.945 14.2734 225.434 14.7031C225.922 15.123 226.352 15.5967 226.723 16.124L219.223 25.1621ZM221.273 16.915C221.088 16.8467 220.902 16.8027 220.717 16.7832C220.541 16.7637 220.355 16.7539 220.16 16.7539C219.613 16.7539 219.096 16.8564 218.607 17.0615C218.129 17.2568 217.709 17.54 217.348 17.9111C216.996 18.2822 216.718 18.7314 216.513 19.2588C216.308 19.7764 216.205 20.3623 216.205 21.0166C216.205 21.1631 216.21 21.3291 216.22 21.5146C216.239 21.7002 216.264 21.8906 216.293 22.0859C216.332 22.2715 216.376 22.4521 216.425 22.6279C216.474 22.8037 216.537 22.96 216.615 23.0967L221.273 16.915Z" fill="white"/>
<path d="M177.155 11.8841L176.831 12.15H177.25H180.348H180.402L180.444 12.1155L187.227 6.4948L194.011 12.1155L194.052 12.15H194.106H197.25H197.669L197.345 11.8841L188.826 4.8841L188.784 4.85H188.731H185.769H185.716L185.674 4.8841L177.155 11.8841Z" fill="#FEA97A" stroke="#FEA97A" stroke-width="0.3"/>
<path d="M7.056 47.856C7.056 46.8853 6.816 46.1387 6.336 45.616C5.856 45.0933 5.216 44.832 4.416 44.832C3.968 44.832 3.616 44.848 3.36 44.88C3.11467 44.912 2.91733 44.9493 2.768 44.992V50.24C2.94933 50.3893 3.21067 50.5333 3.552 50.672C3.89333 50.8107 4.26667 50.88 4.672 50.88C5.09867 50.88 5.46133 50.8053 5.76 50.656C6.06933 50.496 6.32 50.2827 6.512 50.016C6.704 49.7387 6.84267 49.4187 6.928 49.056C7.01333 48.6827 7.056 48.2827 7.056 47.856ZM8.608 47.856C8.608 48.4853 8.52267 49.0667 8.352 49.6C8.192 50.1333 7.952 50.592 7.632 50.976C7.312 51.36 6.91733 51.6587 6.448 51.872C5.98933 52.0853 5.46133 52.192 4.864 52.192C4.384 52.192 3.95733 52.128 3.584 52C3.22133 51.872 2.94933 51.7493 2.768 51.632V54.96H1.28V43.936C1.632 43.8507 2.06933 43.76 2.592 43.664C3.12533 43.5573 3.73867 43.504 4.432 43.504C5.072 43.504 5.648 43.6053 6.16 43.808C6.672 44.0107 7.10933 44.2987 7.472 44.672C7.83467 45.0453 8.112 45.504 8.304 46.048C8.50667 46.5813 8.608 47.184 8.608 47.856ZM10.8779 47.856C10.8779 47.12 10.9845 46.48 11.1979 45.936C11.4112 45.3813 11.6939 44.9227 12.0459 44.56C12.3979 44.1973 12.8032 43.9253 13.2619 43.744C13.7205 43.5627 14.1899 43.472 14.6699 43.472C15.7899 43.472 16.6485 43.824 17.2459 44.528C17.8432 45.2213 18.1419 46.2827 18.1419 47.712C18.1419 47.776 18.1419 47.8613 18.1419 47.968C18.1419 48.064 18.1365 48.1547 18.1259 48.24H12.4299C12.4939 49.104 12.7445 49.76 13.1819 50.208C13.6192 50.656 14.3019 50.88 15.2299 50.88C15.7525 50.88 16.1899 50.8373 16.5419 50.752C16.9045 50.656 17.1765 50.5653 17.3579 50.48L17.5659 51.728C17.3845 51.824 17.0645 51.9253 16.6059 52.032C16.1579 52.1387 15.6459 52.192 15.0699 52.192C14.3445 52.192 13.7152 52.0853 13.1819 51.872C12.6592 51.648 12.2272 51.344 11.8859 50.96C11.5445 50.576 11.2885 50.1227 11.1179 49.6C10.9579 49.0667 10.8779 48.4853 10.8779 47.856ZM16.5899 47.04C16.6005 46.368 16.4299 45.8187 16.0779 45.392C15.7365 44.9547 15.2619 44.736 14.6539 44.736C14.3125 44.736 14.0085 44.8053 13.7419 44.944C13.4859 45.072 13.2672 45.2427 13.0859 45.456C12.9045 45.6693 12.7605 45.9147 12.6539 46.192C12.5579 46.4693 12.4939 46.752 12.4619 47.04H16.5899ZM22.5034 45.872C22.3967 46.928 22.3167 47.984 22.2634 49.04C22.21 50.0853 22.1674 51.072 22.1354 52H20.7114C20.7327 51.3493 20.7647 50.672 20.8074 49.968C20.85 49.2533 20.898 48.5387 20.9514 47.824C21.0047 47.0987 21.0634 46.3893 21.1274 45.696C21.1914 44.992 21.2607 44.32 21.3354 43.68H22.6954C23.0367 44.2347 23.4367 44.9973 23.8954 45.968C24.354 46.928 24.882 48.0373 25.4794 49.296C26.0767 48.0373 26.6047 46.928 27.0634 45.968C27.522 44.9973 27.922 44.2347 28.2634 43.68H29.6394C29.714 44.32 29.7834 44.992 29.8474 45.696C29.9114 46.3893 29.97 47.0987 30.0234 47.824C30.0767 48.5387 30.1247 49.2533 30.1674 49.968C30.21 50.672 30.242 51.3493 30.2634 52H28.7914C28.7594 51.072 28.7167 50.0853 28.6634 49.04C28.61 47.984 28.53 46.928 28.4234 45.872C28.2527 46.2027 28.0554 46.6027 27.8314 47.072C27.6074 47.5307 27.3834 48 27.1594 48.48C26.946 48.96 26.7434 49.4187 26.5514 49.856C26.3594 50.2933 26.21 50.64 26.1034 50.896H24.8554C24.738 50.6293 24.578 50.2773 24.3754 49.84C24.1834 49.4027 23.9754 48.944 23.7514 48.464C23.538 47.9733 23.3194 47.4987 23.0954 47.04C22.8714 46.5707 22.674 46.1813 22.5034 45.872ZM40.6065 47.84C40.6065 48.5013 40.5105 49.0987 40.3185 49.632C40.1265 50.1653 39.8545 50.624 39.5025 51.008C39.1612 51.392 38.7505 51.6907 38.2705 51.904C37.7905 52.1067 37.2678 52.208 36.7025 52.208C36.1372 52.208 35.6145 52.1067 35.1345 51.904C34.6545 51.6907 34.2385 51.392 33.8865 51.008C33.5452 50.624 33.2785 50.1653 33.0865 49.632C32.8945 49.0987 32.7985 48.5013 32.7985 47.84C32.7985 47.1893 32.8945 46.5973 33.0865 46.064C33.2785 45.52 33.5452 45.056 33.8865 44.672C34.2385 44.288 34.6545 43.9947 35.1345 43.792C35.6145 43.5787 36.1372 43.472 36.7025 43.472C37.2678 43.472 37.7905 43.5787 38.2705 43.792C38.7505 43.9947 39.1612 44.288 39.5025 44.672C39.8545 45.056 40.1265 45.52 40.3185 46.064C40.5105 46.5973 40.6065 47.1893 40.6065 47.84ZM39.0545 47.84C39.0545 46.9013 38.8412 46.16 38.4145 45.616C37.9985 45.0613 37.4278 44.784 36.7025 44.784C35.9772 44.784 35.4012 45.0613 34.9745 45.616C34.5585 46.16 34.3505 46.9013 34.3505 47.84C34.3505 48.7787 34.5585 49.5253 34.9745 50.08C35.4012 50.624 35.9772 50.896 36.7025 50.896C37.4278 50.896 37.9985 50.624 38.4145 50.08C38.8412 49.5253 39.0545 48.7787 39.0545 47.84ZM50.156 52H48.668V48.32H44.828V52H43.34V43.68H44.828V47.072H48.668V43.68H50.156V52ZM59.227 43.68V44.928H56.523V52H55.035V44.928H52.331V43.68H59.227ZM68.7844 47.472C69.115 47.7067 69.4724 48.0053 69.8564 48.368C70.2404 48.72 70.6137 49.104 70.9764 49.52C71.3497 49.936 71.6964 50.3627 72.0164 50.8C72.3364 51.2267 72.6084 51.6267 72.8324 52H71.0724C70.8377 51.6373 70.5604 51.2693 70.2404 50.896C69.931 50.512 69.6057 50.144 69.2644 49.792C68.923 49.44 68.5764 49.1147 68.2244 48.816C67.8724 48.5173 67.5417 48.2667 67.2324 48.064V52H65.7444V43.68H67.2324V47.248C67.4884 47.0027 67.7817 46.72 68.1124 46.4C68.443 46.0693 68.7737 45.7387 69.1044 45.408C69.4457 45.0667 69.7604 44.7467 70.0484 44.448C70.3364 44.1387 70.571 43.8827 70.7524 43.68H72.4804C72.2457 43.936 71.9684 44.2293 71.6484 44.56C71.339 44.88 71.0137 45.2107 70.6724 45.552C70.3417 45.8933 70.011 46.2347 69.6804 46.576C69.3497 46.9067 69.051 47.2053 68.7844 47.472ZM76.4341 50.88C76.4981 50.8907 76.5888 50.9013 76.7061 50.912C76.8235 50.9227 76.9568 50.9333 77.1061 50.944C77.2555 50.944 77.4101 50.9493 77.5701 50.96C77.7408 50.96 77.9008 50.96 78.0501 50.96C78.3595 50.96 78.6528 50.9387 78.9301 50.896C79.2181 50.8533 79.4635 50.7787 79.6661 50.672C79.8795 50.5653 80.0448 50.4267 80.1621 50.256C80.2901 50.0747 80.3541 49.8453 80.3541 49.568C80.3541 49.3013 80.2955 49.0827 80.1781 48.912C80.0715 48.7307 79.9221 48.5867 79.7301 48.48C79.5381 48.3733 79.3088 48.2987 79.0421 48.256C78.7861 48.2133 78.5088 48.192 78.2101 48.192H76.4341V50.88ZM78.0181 47.088C78.3061 47.088 78.5675 47.072 78.8021 47.04C79.0475 46.9973 79.2555 46.928 79.4261 46.832C79.6075 46.736 79.7461 46.608 79.8421 46.448C79.9488 46.288 80.0021 46.0853 80.0021 45.84C80.0021 45.584 79.9381 45.3813 79.8101 45.232C79.6821 45.0827 79.5115 44.9707 79.2981 44.896C79.0955 44.8107 78.8608 44.7573 78.5941 44.736C78.3381 44.704 78.0768 44.688 77.8101 44.688C77.5648 44.688 77.3141 44.6933 77.0581 44.704C76.8128 44.7147 76.6048 44.7253 76.4341 44.736V47.088H78.0181ZM77.9861 52.144C77.3568 52.144 76.7755 52.112 76.2421 52.048C75.7088 51.9947 75.2875 51.9307 74.9781 51.856V43.76C75.2875 43.6853 75.7088 43.6213 76.2421 43.568C76.7755 43.504 77.3568 43.472 77.9861 43.472C78.4235 43.472 78.8501 43.5093 79.2661 43.584C79.6821 43.6587 80.0501 43.7867 80.3701 43.968C80.6901 44.1387 80.9461 44.3787 81.1381 44.688C81.3408 44.9867 81.4421 45.36 81.4421 45.808C81.4421 46.2133 81.3408 46.56 81.1381 46.848C80.9355 47.136 80.6635 47.36 80.3221 47.52C80.7808 47.68 81.1435 47.92 81.4101 48.24C81.6875 48.5493 81.8261 48.9867 81.8261 49.552C81.8261 50.0533 81.7248 50.4693 81.5221 50.8C81.3301 51.1307 81.0581 51.3973 80.7061 51.6C80.3648 51.8027 79.9595 51.9413 79.4901 52.016C79.0208 52.1013 78.5195 52.144 77.9861 52.144ZM87.1998 50.928C87.5518 50.928 87.8611 50.9227 88.1278 50.912C88.4051 50.8907 88.6344 50.8587 88.8158 50.816V48.336C88.7091 48.2827 88.5331 48.24 88.2878 48.208C88.0531 48.1653 87.7651 48.144 87.4238 48.144C87.1998 48.144 86.9598 48.16 86.7038 48.192C86.4584 48.224 86.2291 48.2933 86.0158 48.4C85.8131 48.496 85.6424 48.6347 85.5038 48.816C85.3651 48.9867 85.2958 49.216 85.2958 49.504C85.2958 50.0373 85.4664 50.4107 85.8078 50.624C86.1491 50.8267 86.6131 50.928 87.1998 50.928ZM87.0718 43.472C87.6691 43.472 88.1704 43.552 88.5758 43.712C88.9918 43.8613 89.3224 44.08 89.5678 44.368C89.8238 44.6453 90.0051 44.9813 90.1118 45.376C90.2184 45.76 90.2718 46.1867 90.2718 46.656V51.856C90.1438 51.8773 89.9624 51.9093 89.7278 51.952C89.5038 51.984 89.2478 52.016 88.9598 52.048C88.6718 52.08 88.3571 52.1067 88.0158 52.128C87.6851 52.16 87.3544 52.176 87.0238 52.176C86.5544 52.176 86.1224 52.128 85.7278 52.032C85.3331 51.936 84.9918 51.7867 84.7038 51.584C84.4158 51.3707 84.1918 51.0933 84.0318 50.752C83.8718 50.4107 83.7918 50 83.7918 49.52C83.7918 49.0613 83.8824 48.6667 84.0638 48.336C84.2558 48.0053 84.5118 47.7387 84.8318 47.536C85.1518 47.3333 85.5251 47.184 85.9518 47.088C86.3784 46.992 86.8264 46.944 87.2958 46.944C87.4451 46.944 87.5998 46.9547 87.7598 46.976C87.9198 46.9867 88.0691 47.008 88.2078 47.04C88.3571 47.0613 88.4851 47.0827 88.5918 47.104C88.6984 47.1253 88.7731 47.1413 88.8158 47.152V46.736C88.8158 46.4907 88.7891 46.2507 88.7358 46.016C88.6824 45.7707 88.5864 45.5573 88.4478 45.376C88.3091 45.184 88.1171 45.0347 87.8718 44.928C87.6371 44.8107 87.3278 44.752 86.9438 44.752C86.4531 44.752 86.0211 44.7893 85.6478 44.864C85.2851 44.928 85.0131 44.9973 84.8318 45.072L84.6558 43.84C84.8478 43.7547 85.1678 43.6747 85.6158 43.6C86.0638 43.5147 86.5491 43.472 87.0718 43.472ZM99.1591 47.856C99.1591 46.8853 98.9191 46.1387 98.4391 45.616C97.9591 45.0933 97.3191 44.832 96.5191 44.832C96.0711 44.832 95.7191 44.848 95.4631 44.88C95.2178 44.912 95.0205 44.9493 94.8711 44.992V50.24C95.0525 50.3893 95.3138 50.5333 95.6551 50.672C95.9965 50.8107 96.3698 50.88 96.7751 50.88C97.2018 50.88 97.5645 50.8053 97.8631 50.656C98.1725 50.496 98.4231 50.2827 98.6151 50.016C98.8071 49.7387 98.9458 49.4187 99.0311 49.056C99.1165 48.6827 99.1591 48.2827 99.1591 47.856ZM100.711 47.856C100.711 48.4853 100.626 49.0667 100.455 49.6C100.295 50.1333 100.055 50.592 99.7351 50.976C99.4151 51.36 99.0205 51.6587 98.5511 51.872C98.0925 52.0853 97.5645 52.192 96.9671 52.192C96.4871 52.192 96.0605 52.128 95.6871 52C95.3245 51.872 95.0525 51.7493 94.8711 51.632V54.96H93.3831V43.936C93.7351 43.8507 94.1725 43.76 94.6951 43.664C95.2285 43.5573 95.8418 43.504 96.5351 43.504C97.1751 43.504 97.7511 43.6053 98.2631 43.808C98.7751 44.0107 99.2125 44.2987 99.5751 44.672C99.9378 45.0453 100.215 45.504 100.407 46.048C100.61 46.5813 100.711 47.184 100.711 47.856ZM109.317 43.68V44.928H106.613V52H105.125V44.928H102.421V43.68H109.317ZM118.483 43.68V52H117.043V45.664C116.723 46.0693 116.371 46.544 115.987 47.088C115.603 47.632 115.219 48.1973 114.835 48.784C114.451 49.36 114.083 49.9307 113.731 50.496C113.379 51.0613 113.075 51.5627 112.819 52H111.491V43.68H112.931V49.664C113.209 49.2053 113.523 48.704 113.875 48.16C114.227 47.6053 114.59 47.0613 114.963 46.528C115.347 45.984 115.726 45.4667 116.099 44.976C116.483 44.4747 116.841 44.0427 117.171 43.68H118.483ZM127.454 47.856C127.454 46.8853 127.214 46.1387 126.734 45.616C126.254 45.0933 125.614 44.832 124.814 44.832C124.366 44.832 124.014 44.848 123.758 44.88C123.513 44.912 123.315 44.9493 123.166 44.992V50.24C123.347 50.3893 123.609 50.5333 123.95 50.672C124.291 50.8107 124.665 50.88 125.07 50.88C125.497 50.88 125.859 50.8053 126.158 50.656C126.467 50.496 126.718 50.2827 126.91 50.016C127.102 49.7387 127.241 49.4187 127.326 49.056C127.411 48.6827 127.454 48.2827 127.454 47.856ZM129.006 47.856C129.006 48.4853 128.921 49.0667 128.75 49.6C128.59 50.1333 128.35 50.592 128.03 50.976C127.71 51.36 127.315 51.6587 126.846 51.872C126.387 52.0853 125.859 52.192 125.262 52.192C124.782 52.192 124.355 52.128 123.982 52C123.619 51.872 123.347 51.7493 123.166 51.632V54.96H121.678V43.936C122.03 43.8507 122.467 43.76 122.99 43.664C123.523 43.5573 124.137 43.504 124.83 43.504C125.47 43.504 126.046 43.6053 126.558 43.808C127.07 44.0107 127.507 44.2987 127.87 44.672C128.233 45.0453 128.51 45.504 128.702 46.048C128.905 46.5813 129.006 47.184 129.006 47.856ZM135.283 47.456L137.779 43.92L138.819 44.48L137.043 47.456L138.819 50.432L137.779 50.992L135.283 47.456ZM138.611 47.456L141.107 43.92L142.147 44.48L140.371 47.456L142.147 50.432L141.107 50.992L138.611 47.456ZM151.396 52H149.908V44.928H146.196V52H144.708V43.68H151.396V52ZM161.942 47.84C161.942 48.5013 161.846 49.0987 161.654 49.632C161.462 50.1653 161.19 50.624 160.838 51.008C160.496 51.392 160.086 51.6907 159.606 51.904C159.126 52.1067 158.603 52.208 158.038 52.208C157.472 52.208 156.95 52.1067 156.47 51.904C155.99 51.6907 155.574 51.392 155.222 51.008C154.88 50.624 154.614 50.1653 154.422 49.632C154.23 49.0987 154.134 48.5013 154.134 47.84C154.134 47.1893 154.23 46.5973 154.422 46.064C154.614 45.52 154.88 45.056 155.222 44.672C155.574 44.288 155.99 43.9947 156.47 43.792C156.95 43.5787 157.472 43.472 158.038 43.472C158.603 43.472 159.126 43.5787 159.606 43.792C160.086 43.9947 160.496 44.288 160.838 44.672C161.19 45.056 161.462 45.52 161.654 46.064C161.846 46.5973 161.942 47.1893 161.942 47.84ZM160.39 47.84C160.39 46.9013 160.176 46.16 159.75 45.616C159.334 45.0613 158.763 44.784 158.038 44.784C157.312 44.784 156.736 45.0613 156.31 45.616C155.894 46.16 155.686 46.9013 155.686 47.84C155.686 48.7787 155.894 49.5253 156.31 50.08C156.736 50.624 157.312 50.896 158.038 50.896C158.763 50.896 159.334 50.624 159.75 50.08C160.176 49.5253 160.39 48.7787 160.39 47.84ZM163.651 50.784H164.547C164.899 50.272 165.176 49.744 165.379 49.2C165.592 48.656 165.752 48.096 165.859 47.52C165.966 46.9333 166.035 46.3253 166.067 45.696C166.099 45.056 166.12 44.384 166.131 43.68H171.587V50.784H172.707V54.32H171.299V52H165.059V54.32H163.651V50.784ZM170.099 50.784V44.928H167.491C167.48 45.4293 167.454 45.936 167.411 46.448C167.368 46.9493 167.299 47.4507 167.203 47.952C167.107 48.4427 166.968 48.928 166.787 49.408C166.616 49.8773 166.398 50.336 166.131 50.784H170.099ZM182.339 47.472C182.669 47.7067 183.027 48.0053 183.411 48.368C183.795 48.72 184.168 49.104 184.531 49.52C184.904 49.936 185.251 50.3627 185.571 50.8C185.891 51.2267 186.163 51.6267 186.387 52H184.627C184.392 51.6373 184.115 51.2693 183.795 50.896C183.485 50.512 183.16 50.144 182.819 49.792C182.477 49.44 182.131 49.1147 181.779 48.816C181.427 48.5173 181.096 48.2667 180.787 48.064V52H179.299V43.68H180.787V47.248C181.043 47.0027 181.336 46.72 181.667 46.4C181.997 46.0693 182.328 45.7387 182.659 45.408C183 45.0667 183.315 44.7467 183.603 44.448C183.891 44.1387 184.125 43.8827 184.307 43.68H186.035C185.8 43.936 185.523 44.2293 185.203 44.56C184.893 44.88 184.568 45.2107 184.227 45.552C183.896 45.8933 183.565 46.2347 183.235 46.576C182.904 46.9067 182.605 47.2053 182.339 47.472ZM191.772 44.928C191.772 45.28 191.762 45.6587 191.74 46.064C191.73 46.4587 191.703 46.8587 191.66 47.264C191.618 47.6587 191.559 48.0533 191.484 48.448C191.41 48.832 191.314 49.1947 191.196 49.536C191.079 49.8773 190.93 50.1973 190.748 50.496C190.578 50.7947 190.364 51.0613 190.108 51.296C189.852 51.52 189.554 51.712 189.212 51.872C188.871 52.0213 188.471 52.1173 188.012 52.16L187.804 50.912C188.327 50.8053 188.738 50.608 189.036 50.32C189.346 50.032 189.591 49.68 189.772 49.264C189.932 48.9013 190.05 48.4907 190.124 48.032C190.199 47.5733 190.252 47.0987 190.284 46.608C190.316 46.1067 190.332 45.6053 190.332 45.104C190.343 44.6027 190.348 44.128 190.348 43.68H195.884V52H194.396V44.928H191.772ZM200.567 47.12H202.391C202.455 46.5653 202.593 46.064 202.807 45.616C203.031 45.168 203.308 44.784 203.639 44.464C203.969 44.144 204.348 43.8987 204.775 43.728C205.201 43.5573 205.66 43.472 206.151 43.472C206.695 43.472 207.196 43.5787 207.655 43.792C208.124 43.9947 208.529 44.288 208.871 44.672C209.212 45.056 209.479 45.52 209.671 46.064C209.863 46.5973 209.959 47.1893 209.959 47.84C209.959 48.5013 209.863 49.0987 209.671 49.632C209.479 50.1653 209.212 50.624 208.871 51.008C208.529 51.392 208.124 51.6907 207.655 51.904C207.196 52.1067 206.695 52.208 206.151 52.208C205.639 52.208 205.159 52.1173 204.711 51.936C204.273 51.744 203.889 51.4827 203.559 51.152C203.228 50.8107 202.956 50.4 202.743 49.92C202.54 49.44 202.417 48.9067 202.375 48.32H200.567V52H199.079V43.68H200.567V47.12ZM208.423 47.84C208.423 46.9013 208.215 46.16 207.799 45.616C207.393 45.0613 206.844 44.784 206.151 44.784C205.457 44.784 204.903 45.0613 204.487 45.616C204.081 46.16 203.879 46.9013 203.879 47.84C203.879 48.7787 204.081 49.5253 204.487 50.08C204.903 50.624 205.457 50.896 206.151 50.896C206.844 50.896 207.393 50.624 207.799 50.08C208.215 49.5253 208.423 48.7787 208.423 47.84ZM213.632 43.68V46.128C213.632 46.7573 213.792 47.2 214.112 47.456C214.432 47.7013 214.869 47.824 215.424 47.824C215.829 47.824 216.165 47.8027 216.432 47.76C216.709 47.7173 216.954 47.6693 217.168 47.616V43.68H218.656V52H217.168V48.768C217.082 48.7893 216.97 48.816 216.832 48.848C216.693 48.88 216.533 48.912 216.352 48.944C216.181 48.9653 216 48.9867 215.808 49.008C215.616 49.0293 215.429 49.04 215.248 49.04C214.789 49.04 214.368 48.992 213.984 48.896C213.61 48.8 213.285 48.64 213.008 48.416C212.741 48.192 212.528 47.8987 212.368 47.536C212.218 47.1627 212.144 46.6987 212.144 46.144V43.68H213.632ZM222.259 50.992L221.219 50.432L222.995 47.456L221.219 44.48L222.259 43.92L224.755 47.456L222.259 50.992ZM225.587 50.992L224.547 50.432L226.323 47.456L224.547 44.48L225.587 43.92L228.083 47.456L225.587 50.992Z" fill="white"/>
</svg>
